Coordinates
version=1
nRows=8
nColumns=36
inDegrees=yes

Units are S.I. units (second, meters, Newtons, ...)
If the header above contains a line with 'inDegrees', this indicates whether rotational values are in degrees (yes) or radians (no).

endheader
time	pelvis_tilt	pelvis_list	pelvis_rotation	pelvis_tx	pelvis_ty	pelvis_tz	hip_flexion_r	hip_adduction_r	hip_rotation_r	knee_angle_r	knee_angle_r_beta	ankle_angle_r	subtalar_angle_r	mtp_angle_r	hip_flexion_l	hip_adduction_l	hip_rotation_l	knee_angle_l	knee_angle_l_beta	ankle_angle_l	subtalar_angle_l	mtp_angle_l	lumbar_extension	lumbar_bending	lumbar_rotation	arm_flex_r	arm_add_r	arm_rot_r	elbow_flex_r	pro_sup_r	arm_flex_l	arm_add_l	arm_rot_l	elbow_flex_l	pro_sup_l
      3.70000000	     -2.04197510	      1.17901513	      0.05115694	      0.61735290	      0.96889511	     -0.08337383	      2.16162875	      7.22397008	     17.81646314	      9.25229869	      0.16148308	     12.02776481	    -21.84189644	     -7.49999987	     10.11579041	     -5.59978913	      6.77504670	     35.38975741	      0.61766779	     14.44247092	    -11.76223566	     -7.49999987	      0.05200089	      3.26944887	      1.03290323	     35.80771062	      6.37276592	     64.07539834	    125.15358375	     94.06889887	     45.41627020	     10.97080666	     67.80208541	    125.43292035	     86.69071045
      3.71666670	     -2.11385179	      1.13133902	     -0.14623032	      0.61754934	      0.96850793	     -0.08322731	      2.24925488	      7.29744547	     18.18188343	      9.26302059	      0.16167021	     11.75770671	    -22.26458280	     -7.49999987	     10.11550055	     -5.67431105	      6.61550224	     35.32144618	      0.61647553	     14.47020439	    -11.67458963	     -7.49999987	      0.20907403	      3.34932109	      1.18516074	     35.79081224	      6.39208977	     64.04187982	    125.08318904	     93.24440972	     45.34076490	     10.93169636	     67.82597645	    125.35004694	     86.08032653
      3.73333330	     -2.06103993	      1.13035607	     -0.10109309	      0.61736945	      0.96895475	     -0.08330807	      2.17851776	      7.30086302	     17.89610812	      9.29115946	      0.16216132	     11.88852921	    -21.82951120	     -7.49999987	     10.02859752	     -5.63813937	      6.73176571	     35.24051421	      0.61506300	     14.36401055	    -11.86940614	     -7.49999987	      0.18081119	      3.32740081	      1.09330896	     35.81972040	      6.52258504	     64.08760875	    125.03281305	     95.76646336	     45.39221944	     10.92888297	     67.80427850	    125.27831449	     88.34406453
      3.75000000	     -2.09861338	      1.15166821	     -0.10182962	      0.61744029	      0.97045421	     -0.08317694	      2.08646882	      7.26094161	     17.91800601	      9.03971542	      0.15777280	     11.77784511	    -21.81092666	     -7.49999987	      9.97624327	     -5.59881059	      6.71178198	     35.13717798	      0.61325945	     14.19015871	    -11.77381319	     -7.49999987	      0.27713520	      3.33983148	      1.19082203	     35.70516897	      6.44428701	     64.11798347	    124.88309747	     94.87635676	     45.23692999	     10.97094364	     67.90914900	    125.25412231	     87.34846887
      3.76666670	     -1.99199625	      1.18061239	     -0.07337668	      0.61718765	      0.97057683	     -0.08314136	      1.79197379	      7.18194056	     17.94380344	      8.68187426	      0.15152729	     11.64581201	    -21.72439231	     -7.49999987	      9.78060837	     -5.53721854	      6.76023113	     34.97674810	      0.61045942	     13.99755833	    -11.86907385	     -7.49999987	      0.21078497	      3.36903401	      1.37620663	     35.79837500	      6.40139724	     64.08430647	    124.67921330	     93.86099863	     45.19140657	     11.08213612	     68.04025302	    125.13096266	     86.44930044
      3.78333330	     -2.20384477	      1.17439824	     -0.00206070	      0.61746466	      0.97155312	     -0.08318772	      1.85936330	      7.13961664	     17.84428948	      8.35226655	      0.14577455	     11.50332250	    -21.55927552	     -7.49999987	      9.99567211	     -5.51473736	      6.86233467	     34.91036715	      0.60930085	     13.89658754	    -11.78582637	     -7.49999987	      0.58694621	      3.42241447	      1.43296117	     35.61763312	      6.35324909	     64.03281493	    124.60422877	     92.40011115	     44.82926837	     11.10162553	     68.06195725	    125.10667063	     85.10841504
      3.80000000	     -1.83443877	      1.25134208	     -0.10821570	      0.61696304	      0.97208864	     -0.08302330	      1.41050044	      7.01817347	     17.85279807	      8.18849086	      0.14291613	     11.58522942	    -21.30076614	     -7.49999987	      9.50141783	     -5.41701655	      6.79171774	     34.73471622	      0.60623516	     13.74626622	    -12.01396795	     -7.49999987	     -0.04208808	      3.33109771	      1.63225555	     35.88499223	      6.39063224	     64.36456072	    124.54742220	     92.22026441	     45.05333427	     11.16817082	     68.26535739	    125.03778524	     85.19175172
      3.81666670	     -1.79565540	      1.24707353	     -0.10407170	      0.61710619	      0.97147711	     -0.08302268	      1.27413183	      7.02864071	     17.96782110	      8.04299970	      0.14037683	     11.42107583	    -21.35440014	     -7.49999987	      9.45155605	     -5.43328464	      6.79618127	     34.66836766	      0.60507716	     13.83275645	    -12.12934128	     -7.49999987	     -0.07723172	      3.35172480	      1.70121657	     35.80262103	      6.31016979	     64.35014586	    124.46353442	     91.75830325	     45.02752854	     11.18198518	     68.26546351	    124.94335021	     84.82406801
